<?xml version="1.0" standalone="no"?>
<!DOCTYPE svg PUBLIC "-//W3C//DTD SVG 20010904//EN"
 "http://www.w3.org/TR/2001/REC-SVG-20010904/DTD/svg10.dtd">
<svg version="1.0" xmlns="http://www.w3.org/2000/svg"
 width="1024.000000pt" height="1024.000000pt" viewBox="0 0 1024.000000 1024.000000"
 preserveAspectRatio="xMidYMid meet">

<g transform="translate(0.000000,1024.000000) scale(0.100000,-0.100000)"
fill="#000000" stroke="none">
<path d="M4700 8246 c-102 -13 -208 -28 -235 -34 -28 -6 -84 -19 -125 -28
-258 -55 -648 -208 -857 -336 -21 -13 -54 -32 -74 -42 -52 -27 -300 -207 -411
-297 -82 -68 -254 -238 -344 -339 -403 -460 -659 -1047 -735 -1685 -20 -164
-17 -637 5 -795 69 -510 233 -947 509 -1355 56 -83 143 -203 157 -215 3 -3 37
-43 76 -90 446 -534 1124 -925 1829 -1055 461 -85 965 -71 1405 40 445 112
909 355 1270 664 150 128 377 371 500 536 54 71 180 260 180 268 0 3 11 22 24
42 41 59 131 242 185 373 119 289 190 575 221 892 14 135 8 582 -9 710 -80
611 -298 1128 -673 1596 -273 341 -692 668 -1093 854 -143 67 -170 78 -265
113 -104 38 -124 45 -250 81 -167 48 -161 47 -340 76 -178 29 -326 42 -535 45
-195 3 -258 0 -415 -19z m705 -281 c364 -41 663 -126 981 -280 493 -237 866
-558 1152 -991 325 -491 487 -1076 469 -1684 -19 -610 -212 -1162 -581 -1655
-110 -146 -389 -429 -531 -536 -356 -271 -758 -457 -1175 -547 -220 -48 -370
-63 -615 -63 -353 0 -593 38 -950 149 -193 60 -485 204 -685 337 -176 117
-274 198 -435 360 -468 469 -747 1040 -837 1715 -19 143 -16 557 5 706 62 445
202 830 429 1189 258 406 649 757 1102 991 339 175 706 281 1096 318 105 9
459 4 575 -9z"/>
<path d="M4910 7254 c-331 -41 -601 -146 -846 -330 -442 -330 -712 -828 -799
-1469 -23 -168 -31 -519 -16 -696 31 -365 124 -681 277 -939 155 -263 425
-516 677 -636 93 -44 85 -47 226 71 254 214 420 524 485 910 31 185 37 357 34
1066 -3 635 -1 717 15 834 67 476 217 827 458 1067 99 98 102 87 -31 108 -69
11 -421 21 -480 14z"/>
<path d="M5798 7122 c-103 -69 -228 -213 -303 -347 -47 -84 -98 -227 -126
-352 -21 -95 -22 -125 -29 -978 -5 -550 -12 -918 -19 -980 -46 -398 -131 -669
-293 -929 -104 -168 -271 -351 -406 -446 -34 -24 -59 -47 -55 -51 15 -15 209
-48 343 -60 400 -34 780 55 1108 259 353 220 641 581 815 1022 281 714 203
1642 -188 2225 -182 273 -437 494 -695 605 -110 48 -124 51 -152 32z"/>
</g>
</svg>
